<?xml version="1.0" encoding="utf-8" standalone="no"?>
<!DOCTYPE svg PUBLIC "-//W3C//DTD SVG 1.1//EN"
  "http://www.w3.org/Graphics/SVG/1.1/DTD/svg11.dtd">
<!-- Created with matplotlib (https://matplotlib.org/) -->
<svg height="1080pt" version="1.1" viewBox="0 0 1080 1080" width="1080pt" xmlns="http://www.w3.org/2000/svg" xmlns:xlink="http://www.w3.org/1999/xlink">
 <metadata>
  <rdf:RDF xmlns:cc="http://creativecommons.org/ns#" xmlns:dc="http://purl.org/dc/elements/1.1/" xmlns:rdf="http://www.w3.org/1999/02/22-rdf-syntax-ns#">
   <cc:Work>
    <dc:type rdf:resource="http://purl.org/dc/dcmitype/StillImage"/>
    <dc:date>2021-03-01T18:58:53.037485</dc:date>
    <dc:format>image/svg+xml</dc:format>
    <dc:creator>
     <cc:Agent>
      <dc:title>Matplotlib v3.3.4, https://matplotlib.org/</dc:title>
     </cc:Agent>
    </dc:creator>
   </cc:Work>
  </rdf:RDF>
 </metadata>
 <defs>
  <style type="text/css">*{stroke-linecap:butt;stroke-linejoin:round;}</style>
 </defs>
 <g id="figure_1">
  <g id="patch_1">
   <path d="M 0 1080 
L 1080 1080 
L 1080 0 
L 0 0 
z
" style="fill:none;"/>
  </g>
  <g id="axes_1">
   <g id="LineCollection_1">
    <path clip-path="url(#pe8896cda5f)" d="M 254.307111 435.329589 
L 347.019273 681.753042 
" style="fill:none;stroke:#90ee90;stroke-opacity:0.5;stroke-width:0.5;"/>
    <path clip-path="url(#pe8896cda5f)" d="M 254.307111 435.329589 
L 158.089538 210.30557 
" style="fill:none;stroke:#90ee90;stroke-opacity:0.5;stroke-width:0.5;"/>
    <path clip-path="url(#pe8896cda5f)" d="M 254.307111 435.329589 
L 237.593855 348.227799 
" style="fill:none;stroke:#90ee90;stroke-opacity:0.5;stroke-width:0.5;"/>
    <path clip-path="url(#pe8896cda5f)" d="M 907.073878 767.747275 
L 1030.909091 793.148881 
" style="fill:none;stroke:#90ee90;stroke-opacity:0.5;stroke-width:0.5;"/>
    <path clip-path="url(#pe8896cda5f)" d="M 907.073878 767.747275 
L 748.298805 737.734845 
" style="fill:none;stroke:#90ee90;stroke-opacity:0.5;stroke-width:0.5;"/>
    <path clip-path="url(#pe8896cda5f)" d="M 158.089538 210.30557 
L 147.145263 49.090909 
" style="fill:none;stroke:#90ee90;stroke-opacity:0.5;stroke-width:0.5;"/>
    <path clip-path="url(#pe8896cda5f)" d="M 158.089538 210.30557 
L 49.090909 108.016267 
" style="fill:none;stroke:#90ee90;stroke-opacity:0.5;stroke-width:0.5;"/>
    <path clip-path="url(#pe8896cda5f)" d="M 347.019273 681.753042 
L 223.205653 843.042914 
" style="fill:none;stroke:#90ee90;stroke-opacity:0.5;stroke-width:0.5;"/>
    <path clip-path="url(#pe8896cda5f)" d="M 347.019273 681.753042 
L 560.859149 706.679116 
" style="fill:none;stroke:#90ee90;stroke-opacity:0.5;stroke-width:0.5;"/>
    <path clip-path="url(#pe8896cda5f)" d="M 347.019273 681.753042 
L 320.067097 805.347417 
" style="fill:none;stroke:#90ee90;stroke-opacity:0.5;stroke-width:0.5;"/>
    <path clip-path="url(#pe8896cda5f)" d="M 347.019273 681.753042 
L 394.77615 882.889393 
" style="fill:none;stroke:#90ee90;stroke-opacity:0.5;stroke-width:0.5;"/>
    <path clip-path="url(#pe8896cda5f)" d="M 347.019273 681.753042 
L 286.115389 523.590797 
" style="fill:none;stroke:#90ee90;stroke-opacity:0.5;stroke-width:0.5;"/>
    <path clip-path="url(#pe8896cda5f)" d="M 115.623037 951.629228 
L 223.205653 843.042914 
" style="fill:none;stroke:#90ee90;stroke-opacity:0.5;stroke-width:0.5;"/>
    <path clip-path="url(#pe8896cda5f)" d="M 223.205653 843.042914 
L 298.383328 919.250428 
" style="fill:none;stroke:#90ee90;stroke-opacity:0.5;stroke-width:0.5;"/>
    <path clip-path="url(#pe8896cda5f)" d="M 560.859149 706.679116 
L 748.298805 737.734845 
" style="fill:none;stroke:#90ee90;stroke-opacity:0.5;stroke-width:0.5;"/>
    <path clip-path="url(#pe8896cda5f)" d="M 237.593855 348.227799 
L 286.115389 523.590797 
" style="fill:none;stroke:#90ee90;stroke-opacity:0.5;stroke-width:0.5;"/>
    <path clip-path="url(#pe8896cda5f)" d="M 237.593855 348.227799 
L 100.749786 345.161406 
" style="fill:none;stroke:#90ee90;stroke-opacity:0.5;stroke-width:0.5;"/>
    <path clip-path="url(#pe8896cda5f)" d="M 237.593855 348.227799 
L 328.281645 183.514678 
" style="fill:none;stroke:#90ee90;stroke-opacity:0.5;stroke-width:0.5;"/>
    <path clip-path="url(#pe8896cda5f)" d="M 298.383328 919.250428 
L 320.067097 805.347417 
" style="fill:none;stroke:#90ee90;stroke-opacity:0.5;stroke-width:0.5;"/>
    <path clip-path="url(#pe8896cda5f)" d="M 298.383328 919.250428 
L 394.77615 882.889393 
" style="fill:none;stroke:#90ee90;stroke-opacity:0.5;stroke-width:0.5;"/>
    <path clip-path="url(#pe8896cda5f)" d="M 451.139701 1030.909091 
L 394.77615 882.889393 
" style="fill:none;stroke:#90ee90;stroke-opacity:0.5;stroke-width:0.5;"/>
    <path clip-path="url(#pe8896cda5f)" d="M 396.131137 58.065425 
L 328.281645 183.514678 
" style="fill:none;stroke:#90ee90;stroke-opacity:0.5;stroke-width:0.5;"/>
   </g>
   <g id="PathCollection_1">
    <path clip-path="url(#pe8896cda5f)" d="M 254.307111 438.068202 
C 255.0334 438.068202 255.730039 437.779644 256.243603 437.26608 
C 256.757166 436.752517 257.045724 436.055877 257.045724 435.329589 
C 257.045724 434.6033 256.757166 433.906661 256.243603 433.393097 
C 255.730039 432.879533 255.0334 432.590976 254.307111 432.590976 
C 253.580822 432.590976 252.884183 432.879533 252.370619 433.393097 
C 251.857056 433.906661 251.568498 434.6033 251.568498 435.329589 
C 251.568498 436.055877 251.857056 436.752517 252.370619 437.26608 
C 252.884183 437.779644 253.580822 438.068202 254.307111 438.068202 
z
" style="fill:#1f78b4;fill-opacity:0.5;stroke:#1f78b4;stroke-opacity:0.5;"/>
    <path clip-path="url(#pe8896cda5f)" d="M 907.073878 769.983343 
C 907.66689 769.983343 908.235694 769.747736 908.655017 769.328414 
C 909.07434 768.909091 909.309946 768.340287 909.309946 767.747275 
C 909.309946 767.154263 909.07434 766.585459 908.655017 766.166136 
C 908.235694 765.746813 907.66689 765.511207 907.073878 765.511207 
C 906.480866 765.511207 905.912062 765.746813 905.492739 766.166136 
C 905.073416 766.585459 904.83781 767.154263 904.83781 767.747275 
C 904.83781 768.340287 905.073416 768.909091 905.492739 769.328414 
C 905.912062 769.747736 906.480866 769.983343 907.073878 769.983343 
z
" style="fill:#1f78b4;fill-opacity:0.5;stroke:#1f78b4;stroke-opacity:0.5;"/>
    <path clip-path="url(#pe8896cda5f)" d="M 158.089538 213.044182 
C 158.815827 213.044182 159.512466 212.755625 160.02603 212.242061 
C 160.539593 211.728498 160.828151 211.031858 160.828151 210.30557 
C 160.828151 209.579281 160.539593 208.882642 160.02603 208.369078 
C 159.512466 207.855514 158.815827 207.566957 158.089538 207.566957 
C 157.363249 207.566957 156.66661 207.855514 156.153046 208.369078 
C 155.639483 208.882642 155.350925 209.579281 155.350925 210.30557 
C 155.350925 211.031858 155.639483 211.728498 156.153046 212.242061 
C 156.66661 212.755625 157.363249 213.044182 158.089538 213.044182 
z
" style="fill:#1f78b4;fill-opacity:0.5;stroke:#1f78b4;stroke-opacity:0.5;"/>
    <path clip-path="url(#pe8896cda5f)" d="M 347.019273 685.626025 
C 348.0464 685.626025 349.031597 685.217944 349.757885 684.491655 
C 350.484174 683.765366 350.892256 682.780169 350.892256 681.753042 
C 350.892256 680.725915 350.484174 679.740718 349.757885 679.014429 
C 349.031597 678.288141 348.0464 677.880059 347.019273 677.880059 
C 345.992145 677.880059 345.006948 678.288141 344.28066 679.014429 
C 343.554371 679.740718 343.146289 680.725915 343.146289 681.753042 
C 343.146289 682.780169 343.554371 683.765366 344.28066 684.491655 
C 345.006948 685.217944 345.992145 685.626025 347.019273 685.626025 
z
" style="fill:#1f78b4;fill-opacity:0.5;stroke:#1f78b4;stroke-opacity:0.5;"/>
    <path clip-path="url(#pe8896cda5f)" d="M 115.623037 953.210366 
C 116.04236 953.210366 116.444565 953.043768 116.741071 952.747262 
C 117.037577 952.450755 117.204176 952.048551 117.204176 951.629228 
C 117.204176 951.209905 117.037577 950.8077 116.741071 950.511194 
C 116.444565 950.214688 116.04236 950.048089 115.623037 950.048089 
C 115.203714 950.048089 114.801509 950.214688 114.505003 950.511194 
C 114.208497 950.8077 114.041898 951.209905 114.041898 951.629228 
C 114.041898 952.048551 114.208497 952.450755 114.505003 952.747262 
C 114.801509 953.043768 115.203714 953.210366 115.623037 953.210366 
z
" style="fill:#1f78b4;fill-opacity:0.5;stroke:#1f78b4;stroke-opacity:0.5;"/>
    <path clip-path="url(#pe8896cda5f)" d="M 223.205653 845.781526 
C 223.931941 845.781526 224.628581 845.492969 225.142144 844.979405 
C 225.655708 844.465842 225.944266 843.769202 225.944266 843.042914 
C 225.944266 842.316625 225.655708 841.619986 225.142144 841.106422 
C 224.628581 840.592858 223.931941 840.304301 223.205653 840.304301 
C 222.479364 840.304301 221.782725 840.592858 221.269161 841.106422 
C 220.755598 841.619986 220.46704 842.316625 220.46704 843.042914 
C 220.46704 843.769202 220.755598 844.465842 221.269161 844.979405 
C 221.782725 845.492969 222.479364 845.781526 223.205653 845.781526 
z
" style="fill:#1f78b4;fill-opacity:0.5;stroke:#1f78b4;stroke-opacity:0.5;"/>
    <path clip-path="url(#pe8896cda5f)" d="M 1030.909091 794.73002 
C 1031.328414 794.73002 1031.730619 794.563421 1032.027125 794.266915 
C 1032.323631 793.970409 1032.49023 793.568204 1032.49023 793.148881 
C 1032.49023 792.729558 1032.323631 792.327353 1032.027125 792.030847 
C 1031.730619 791.734341 1031.328414 791.567742 1030.909091 791.567742 
C 1030.489768 791.567742 1030.087563 791.734341 1029.791057 792.030847 
C 1029.494551 792.327353 1029.327952 792.729558 1029.327952 793.148881 
C 1029.327952 793.568204 1029.494551 793.970409 1029.791057 794.266915 
C 1030.087563 794.563421 1030.489768 794.73002 1030.909091 794.73002 
z
" style="fill:#1f78b4;fill-opacity:0.5;stroke:#1f78b4;stroke-opacity:0.5;"/>
    <path clip-path="url(#pe8896cda5f)" d="M 560.859149 708.915184 
C 561.452161 708.915184 562.020965 708.679578 562.440287 708.260255 
C 562.85961 707.840932 563.095217 707.272128 563.095217 706.679116 
C 563.095217 706.086104 562.85961 705.5173 562.440287 705.097977 
C 562.020965 704.678654 561.452161 704.443048 560.859149 704.443048 
C 560.266136 704.443048 559.697333 704.678654 559.27801 705.097977 
C 558.858687 705.5173 558.623081 706.086104 558.623081 706.679116 
C 558.623081 707.272128 558.858687 707.840932 559.27801 708.260255 
C 559.697333 708.679578 560.266136 708.915184 560.859149 708.915184 
z
" style="fill:#1f78b4;fill-opacity:0.5;stroke:#1f78b4;stroke-opacity:0.5;"/>
    <path clip-path="url(#pe8896cda5f)" d="M 237.593855 351.390076 
C 238.432501 351.390076 239.236911 351.056879 239.829923 350.463867 
C 240.422935 349.870854 240.756133 349.066444 240.756133 348.227799 
C 240.756133 347.389153 240.422935 346.584743 239.829923 345.991731 
C 239.236911 345.398718 238.432501 345.065521 237.593855 345.065521 
C 236.755209 345.065521 235.950799 345.398718 235.357787 345.991731 
C 234.764775 346.584743 234.431577 347.389153 234.431577 348.227799 
C 234.431577 349.066444 234.764775 349.870854 235.357787 350.463867 
C 235.950799 351.056879 236.755209 351.390076 237.593855 351.390076 
z
" style="fill:#1f78b4;fill-opacity:0.5;stroke:#1f78b4;stroke-opacity:0.5;"/>
    <path clip-path="url(#pe8896cda5f)" d="M 298.383328 921.989041 
C 299.109617 921.989041 299.806256 921.700484 300.31982 921.18692 
C 300.833384 920.673356 301.121941 919.976717 301.121941 919.250428 
C 301.121941 918.52414 300.833384 917.8275 300.31982 917.313937 
C 299.806256 916.800373 299.109617 916.511816 298.383328 916.511816 
C 297.65704 916.511816 296.9604 916.800373 296.446837 917.313937 
C 295.933273 917.8275 295.644716 918.52414 295.644716 919.250428 
C 295.644716 919.976717 295.933273 920.673356 296.446837 921.18692 
C 296.9604 921.700484 297.65704 921.989041 298.383328 921.989041 
z
" style="fill:#1f78b4;fill-opacity:0.5;stroke:#1f78b4;stroke-opacity:0.5;"/>
    <path clip-path="url(#pe8896cda5f)" d="M 451.139701 1032.49023 
C 451.559023 1032.49023 451.961228 1032.323631 452.257735 1032.027125 
C 452.554241 1031.730619 452.720839 1031.328414 452.720839 1030.909091 
C 452.720839 1030.489768 452.554241 1030.087563 452.257735 1029.791057 
C 451.961228 1029.494551 451.559023 1029.327952 451.139701 1029.327952 
C 450.720378 1029.327952 450.318173 1029.494551 450.021667 1029.791057 
C 449.725161 1030.087563 449.558562 1030.489768 449.558562 1030.909091 
C 449.558562 1031.328414 449.725161 1031.730619 450.021667 1032.027125 
C 450.318173 1032.323631 450.720378 1032.49023 451.139701 1032.49023 
z
" style="fill:#1f78b4;fill-opacity:0.5;stroke:#1f78b4;stroke-opacity:0.5;"/>
    <path clip-path="url(#pe8896cda5f)" d="M 320.067097 807.583485 
C 320.660109 807.583485 321.228913 807.347878 321.648236 806.928555 
C 322.067559 806.509233 322.303165 805.940429 322.303165 805.347417 
C 322.303165 804.754404 322.067559 804.185601 321.648236 803.766278 
C 321.228913 803.346955 320.660109 803.111349 320.067097 803.111349 
C 319.474085 803.111349 318.905281 803.346955 318.485958 803.766278 
C 318.066635 804.185601 317.831029 804.754404 317.831029 805.347417 
C 317.831029 805.940429 318.066635 806.509233 318.485958 806.928555 
C 318.905281 807.347878 319.474085 807.583485 320.067097 807.583485 
z
" style="fill:#1f78b4;fill-opacity:0.5;stroke:#1f78b4;stroke-opacity:0.5;"/>
    <path clip-path="url(#pe8896cda5f)" d="M 394.77615 885.628006 
C 395.502439 885.628006 396.199079 885.339449 396.712642 884.825885 
C 397.226206 884.312321 397.514763 883.615682 397.514763 882.889393 
C 397.514763 882.163105 397.226206 881.466465 396.712642 880.952902 
C 396.199079 880.439338 395.502439 880.150781 394.77615 880.150781 
C 394.049862 880.150781 393.353222 880.439338 392.839659 880.952902 
C 392.326095 881.466465 392.037538 882.163105 392.037538 882.889393 
C 392.037538 883.615682 392.326095 884.312321 392.839659 884.825885 
C 393.353222 885.339449 394.049862 885.628006 394.77615 885.628006 
z
" style="fill:#1f78b4;fill-opacity:0.5;stroke:#1f78b4;stroke-opacity:0.5;"/>
    <path clip-path="url(#pe8896cda5f)" d="M 748.298805 739.970913 
C 748.891817 739.970913 749.460621 739.735307 749.879944 739.315984 
C 750.299267 738.896661 750.534873 738.327857 750.534873 737.734845 
C 750.534873 737.141833 750.299267 736.573029 749.879944 736.153706 
C 749.460621 735.734383 748.891817 735.498777 748.298805 735.498777 
C 747.705793 735.498777 747.136989 735.734383 746.717666 736.153706 
C 746.298343 736.573029 746.062737 737.141833 746.062737 737.734845 
C 746.062737 738.327857 746.298343 738.896661 746.717666 739.315984 
C 747.136989 739.735307 747.705793 739.970913 748.298805 739.970913 
z
" style="fill:#1f78b4;fill-opacity:0.5;stroke:#1f78b4;stroke-opacity:0.5;"/>
    <path clip-path="url(#pe8896cda5f)" d="M 147.145263 50.672048 
C 147.564586 50.672048 147.966791 50.505449 148.263297 50.208943 
C 148.559803 49.912437 148.726402 49.510232 148.726402 49.090909 
C 148.726402 48.671586 148.559803 48.269381 148.263297 47.972875 
C 147.966791 47.676369 147.564586 47.50977 147.145263 47.50977 
C 146.72594 47.50977 146.323735 47.676369 146.027229 47.972875 
C 145.730723 48.269381 145.564124 48.671586 145.564124 49.090909 
C 145.564124 49.510232 145.730723 49.912437 146.027229 50.208943 
C 146.323735 50.505449 146.72594 50.672048 147.145263 50.672048 
z
" style="fill:#1f78b4;fill-opacity:0.5;stroke:#1f78b4;stroke-opacity:0.5;"/>
    <path clip-path="url(#pe8896cda5f)" d="M 49.090909 109.597406 
C 49.510232 109.597406 49.912437 109.430807 50.208943 109.134301 
C 50.505449 108.837795 50.672048 108.43559 50.672048 108.016267 
C 50.672048 107.596944 50.505449 107.194739 50.208943 106.898233 
C 49.912437 106.601727 49.510232 106.435128 49.090909 106.435128 
C 48.671586 106.435128 48.269381 106.601727 47.972875 106.898233 
C 47.676369 107.194739 47.50977 107.596944 47.50977 108.016267 
C 47.50977 108.43559 47.676369 108.837795 47.972875 109.134301 
C 48.269381 109.430807 48.671586 109.597406 49.090909 109.597406 
z
" style="fill:#1f78b4;fill-opacity:0.5;stroke:#1f78b4;stroke-opacity:0.5;"/>
    <path clip-path="url(#pe8896cda5f)" d="M 286.115389 525.826864 
C 286.708401 525.826864 287.277205 525.591258 287.696528 525.171935 
C 288.115851 524.752612 288.351457 524.183809 288.351457 523.590797 
C 288.351457 522.997784 288.115851 522.428981 287.696528 522.009658 
C 287.277205 521.590335 286.708401 521.354729 286.115389 521.354729 
C 285.522377 521.354729 284.953573 521.590335 284.53425 522.009658 
C 284.114927 522.428981 283.879321 522.997784 283.879321 523.590797 
C 283.879321 524.183809 284.114927 524.752612 284.53425 525.171935 
C 284.953573 525.591258 285.522377 525.826864 286.115389 525.826864 
z
" style="fill:#1f78b4;fill-opacity:0.5;stroke:#1f78b4;stroke-opacity:0.5;"/>
    <path clip-path="url(#pe8896cda5f)" d="M 100.749786 346.742545 
C 101.169109 346.742545 101.571314 346.575946 101.86782 346.27944 
C 102.164327 345.982934 102.330925 345.580729 102.330925 345.161406 
C 102.330925 344.742083 102.164327 344.339878 101.86782 344.043372 
C 101.571314 343.746866 101.169109 343.580267 100.749786 343.580267 
C 100.330464 343.580267 99.928259 343.746866 99.631752 344.043372 
C 99.335246 344.339878 99.168648 344.742083 99.168648 345.161406 
C 99.168648 345.580729 99.335246 345.982934 99.631752 346.27944 
C 99.928259 346.575946 100.330464 346.742545 100.749786 346.742545 
z
" style="fill:#1f78b4;fill-opacity:0.5;stroke:#1f78b4;stroke-opacity:0.5;"/>
    <path clip-path="url(#pe8896cda5f)" d="M 396.131137 59.646564 
C 396.55046 59.646564 396.952665 59.479965 397.249171 59.183459 
C 397.545677 58.886953 397.712276 58.484748 397.712276 58.065425 
C 397.712276 57.646102 397.545677 57.243897 397.249171 56.947391 
C 396.952665 56.650885 396.55046 56.484286 396.131137 56.484286 
C 395.711814 56.484286 395.309609 56.650885 395.013103 56.947391 
C 394.716597 57.243897 394.549998 57.646102 394.549998 58.065425 
C 394.549998 58.484748 394.716597 58.886953 395.013103 59.183459 
C 395.309609 59.479965 395.711814 59.646564 396.131137 59.646564 
z
" style="fill:#1f78b4;fill-opacity:0.5;stroke:#1f78b4;stroke-opacity:0.5;"/>
    <path clip-path="url(#pe8896cda5f)" d="M 328.281645 185.750746 
C 328.874657 185.750746 329.443461 185.51514 329.862784 185.095817 
C 330.282107 184.676494 330.517713 184.10769 330.517713 183.514678 
C 330.517713 182.921666 330.282107 182.352862 329.862784 181.933539 
C 329.443461 181.514217 328.874657 181.27861 328.281645 181.27861 
C 327.688633 181.27861 327.119829 181.514217 326.700506 181.933539 
C 326.281183 182.352862 326.045577 182.921666 326.045577 183.514678 
C 326.045577 184.10769 326.281183 184.676494 326.700506 185.095817 
C 327.119829 185.51514 327.688633 185.750746 328.281645 185.750746 
z
" style="fill:#1f78b4;fill-opacity:0.5;stroke:#1f78b4;stroke-opacity:0.5;"/>
   </g>
  </g>
 </g>
 <defs>
  <clipPath id="pe8896cda5f">
   <rect height="1080" width="1080" x="0" y="0"/>
  </clipPath>
 </defs>
</svg>
